<svg width="774" height="1003" viewBox="0 0 774 1003" fill="none" xmlns="http://www.w3.org/2000/svg">
<g clip-path="url(#clip0)">
<rect width="774" height="1003" fill="white"/>
<rect x="1" y="142" width="774" height="861" fill="#EAEBEC" fill-opacity="0.954167"/>
<path d="M0 0H774V173.149C465.442 256.735 296.142 254.492 0 173.149V0Z" fill="#E80020"/>
<path d="M0 0H774V173.149C465.442 256.735 296.142 254.492 0 173.149V0Z" fill="url(#paint0_linear)"/>
<path d="M284 98.5H499" stroke="white"/>
<path d="M0 165C297.721 258.409 467.179 258.531 774 165V177C463.052 264.986 293.569 265.137 0 177V165Z" fill="#00A759" fill-opacity="0.980392"/>
<g filter="url(#filter0_d)">
<circle cx="395.5" cy="246.5" r="65.5" fill="white"/>
</g>
<path d="M435.667 245.111C435.667 247.261 433.936 249.005 431.802 249.005C430.776 249.005 429.793 248.595 429.069 247.864C428.344 247.134 427.936 246.144 427.936 245.111C427.936 244.078 428.344 243.088 429.069 242.357C429.793 241.627 430.776 241.217 431.802 241.217C432.869 241.217 433.835 241.653 434.535 242.357C435.234 243.062 435.667 244.035 435.667 245.111" fill="url(#paint1_linear)"/>
<path d="M421.804 245.194C421.804 247.121 420.338 248.714 418.486 248.86C417.521 249.006 416.538 248.76 415.753 248.176C414.968 247.591 414.445 246.717 414.3 245.745C414.155 244.772 414.4 243.782 414.98 242.991C415.559 241.977 416.692 241.3 417.939 241.3C418.998 241.3 419.968 241.731 420.672 242.441C421.377 243.15 421.804 244.127 421.804 245.194" fill="url(#paint2_linear)"/>
<path d="M407.942 245.277C407.942 246.981 406.74 248.423 405.17 248.715C404.265 249.007 403.282 248.925 402.437 248.487C401.592 248.049 400.954 247.291 400.664 246.379C400.374 245.467 400.456 244.477 400.891 243.625C401.326 242.327 402.608 241.383 404.077 241.383C405.127 241.383 406.1 241.809 406.81 242.524C407.519 243.239 407.942 244.219 407.942 245.277" fill="url(#paint3_linear)"/>
<path d="M394.079 245.361C394.079 246.841 393.143 248.132 391.854 248.571C391.009 249.009 390.026 249.091 389.121 248.799C388.216 248.506 387.463 247.864 387.028 247.013C386.593 246.162 386.512 245.171 386.802 244.259C387.092 242.677 388.523 241.467 390.214 241.467C391.256 241.467 392.232 241.887 392.947 242.607C393.662 243.327 394.079 244.311 394.079 245.361" fill="url(#paint4_linear)"/>
<path d="M380.217 245.444C380.217 246.7 379.545 247.841 378.538 248.426C377.753 249.01 376.77 249.256 375.805 249.11C374.84 248.964 373.972 248.438 373.392 247.647C372.812 246.856 372.568 245.866 372.713 244.893C372.858 243.027 374.439 241.55 376.352 241.55C377.385 241.55 378.365 241.965 379.085 242.691C379.804 243.416 380.217 244.403 380.217 245.444" fill="url(#paint5_linear)"/>
<path d="M366.354 245.527C366.354 246.56 365.947 247.551 365.222 248.281C364.497 249.011 363.514 249.421 362.489 249.421C361.464 249.421 360.481 249.011 359.756 248.281C359.031 247.551 358.624 246.56 358.624 245.527C358.624 243.377 360.355 241.633 362.489 241.633C363.514 241.633 364.497 242.044 365.222 242.774C365.947 243.504 366.354 244.495 366.354 245.527" fill="url(#paint6_linear)"/>
<path d="M367.738 273.873C361.357 272.658 356.275 269.821 351.672 264.904C348.797 261.834 346.825 258.493 345.332 254.158C344.229 250.957 343.777 248.64 343.777 245.176C343.777 241.712 344.227 239.4 345.345 236.142C347.033 231.22 348.857 228.339 352.756 224.436C355.482 221.708 356.746 220.739 359.312 219.41C365.662 216.12 365.2 216.178 385.986 216.033C396.165 215.962 404.011 216.038 404.542 216.038C404.204 217.309 401.084 225.371 400.192 226.926C400.192 226.926 396.469 226.931 385.175 226.931C369.321 226.931 368.446 227.015 364.583 228.921C360.525 230.923 356.965 235.159 355.601 239.608C355.154 241.066 354.741 243.122 354.731 245.135C354.723 246.867 355.058 248.568 355.392 249.829C356.909 255.572 361.438 260.389 367.21 262.403C369.212 263.101 369.715 263.436 375.951 263.565C381.509 263.681 383.484 263.565 383.782 263.646C383.782 264.222 379.835 273.191 379.132 274.279C378.717 274.392 378.946 274.404 374.675 274.374C372.213 274.356 369.092 274.131 367.738 273.873V273.873Z" fill="url(#paint7_linear)"/>
<path d="M387.022 294.174C387.135 293.72 390.131 286.665 393.68 278.497L400.132 263.645L412.414 263.44C425.703 263.218 425.875 263.195 429.882 261.086C432.631 259.64 436.001 256.237 437.358 253.54C440.888 246.521 439.521 237.849 434.009 232.295C430.415 228.674 425.996 226.991 420.056 226.981C418.279 226.979 416.744 226.921 416.537 226.921C416.616 226.563 420.333 217.168 420.753 216.12C422.315 216.12 426.21 216.08 430.901 217.623C439.707 220.52 447.136 228.706 449.488 238.105C450.888 243.698 450.24 251.625 447.959 256.822C445.138 263.249 439.641 268.817 433.177 271.796C428.535 273.936 426.722 274.219 416.319 274.434L406.887 274.628L405.273 276.4C403.068 278.819 387.135 295 386.958 295C386.88 295 386.909 294.628 387.022 294.174L387.022 294.174Z" fill="url(#paint8_linear)"/>
<path d="M400.557 226.951L398.613 226.906L398.59 221.526C398.572 217.283 398.591 216.132 398.681 216.076C398.743 216.036 401.143 216.003 404.014 216C408.115 215.997 409.254 216.021 409.328 216.111C409.385 216.182 409.427 217.002 409.435 218.227C409.44 219.328 409.469 220.262 409.494 220.304C409.52 220.346 409.777 220.38 410.065 220.38C410.483 220.38 410.624 220.341 410.762 220.187C411.059 219.857 411.572 219.649 412.094 219.649C413.709 219.649 414.549 221.509 413.485 222.729C412.774 223.545 411.749 223.602 410.806 222.877C410.516 222.655 410.313 222.57 410.066 222.57C409.411 222.57 409.44 222.484 409.439 224.474C409.438 225.46 409.412 226.421 409.382 226.609L409.325 226.951H407.356H405.386C402.478 226.951 405.456 227.066 400.557 226.951V226.951Z" fill="url(#paint9_linear)"/>
<path d="M414.222 226.951H412.248C410.532 226.951 410.268 226.932 410.22 226.807C410.138 226.591 410.156 223.821 410.241 223.686C410.296 223.598 410.45 223.641 410.888 223.869C411.387 224.128 411.547 224.166 412.105 224.158C412.896 224.148 413.454 223.916 413.959 223.392C414.507 222.823 414.732 222.282 414.736 221.52C414.746 219.492 412.695 218.231 410.857 219.137C410.57 219.279 410.307 219.366 410.272 219.332C410.163 219.222 410.144 216.391 410.251 216.189C410.349 216.005 410.412 216.003 415.58 216.003C418.456 216.004 420.69 216.08 420.753 216.12C420.843 216.176 421.032 217.283 421.014 221.526L420.991 226.906L419.068 226.93C414.41 226.983 415.357 226.951 414.222 226.951V226.951Z" fill="#009646"/>
<path d="M406.458 221.921H373.72C373.72 221.921 349.214 220.378 349.214 245.647C349.214 270.915 373.72 269.758 373.72 269.758H379.464" stroke="#EAEAEA" stroke-width="0.340156" stroke-linecap="round" stroke-dasharray="0.34 1.02"/>
<path d="M416.797 221.921H422.411C429.722 221.921 445.352 227.817 445.208 244.875C445.027 266.285 425.795 269.372 422.158 269.372H418.52L404.735 269.179L387.022 294.174" stroke="#EAEAEA" stroke-width="0.340156" stroke-linecap="round" stroke-dasharray="0.34 1.02"/>
<path d="M332.211 53.186C332.323 53.186 332.439 53.214 332.561 53.27C332.682 53.326 332.775 53.4053 332.841 53.508L336.397 58.926L335.795 58.898L339.421 53.508C339.57 53.2933 339.761 53.186 339.995 53.186C340.181 53.186 340.345 53.256 340.485 53.396C340.634 53.5267 340.709 53.6947 340.709 53.9V62.286C340.709 62.4913 340.643 62.664 340.513 62.804C340.382 62.9347 340.209 63 339.995 63C339.771 63 339.589 62.9347 339.449 62.804C339.318 62.664 339.253 62.4913 339.253 62.286V55.188L339.701 55.286L336.621 59.976C336.555 60.06 336.471 60.1347 336.369 60.2C336.266 60.256 336.159 60.2793 336.047 60.27C335.944 60.2793 335.837 60.256 335.725 60.2C335.622 60.1347 335.538 60.06 335.473 59.976L332.505 55.356L332.841 54.796V62.286C332.841 62.4913 332.775 62.664 332.645 62.804C332.523 62.9347 332.36 63 332.155 63C331.959 63 331.795 62.9347 331.665 62.804C331.543 62.664 331.483 62.4913 331.483 62.286V53.9C331.483 53.704 331.553 53.536 331.693 53.396C331.842 53.256 332.015 53.186 332.211 53.186ZM354.657 58.1C354.657 58.8093 354.54 59.472 354.307 60.088C354.073 60.6947 353.742 61.2267 353.313 61.684C352.893 62.1413 352.393 62.5007 351.815 62.762C351.236 63.014 350.601 63.14 349.911 63.14C349.229 63.14 348.599 63.014 348.021 62.762C347.442 62.5007 346.938 62.1413 346.509 61.684C346.089 61.2267 345.762 60.6947 345.529 60.088C345.305 59.472 345.193 58.8093 345.193 58.1C345.193 57.3907 345.305 56.7327 345.529 56.126C345.762 55.51 346.089 54.9733 346.509 54.516C346.938 54.0587 347.442 53.704 348.021 53.452C348.599 53.1907 349.229 53.06 349.911 53.06C350.601 53.06 351.236 53.1907 351.815 53.452C352.393 53.704 352.893 54.0587 353.313 54.516C353.742 54.9733 354.073 55.51 354.307 56.126C354.54 56.7327 354.657 57.3907 354.657 58.1ZM353.145 58.1C353.145 57.4093 353.005 56.7887 352.725 56.238C352.454 55.6873 352.076 55.2533 351.591 54.936C351.105 54.6187 350.545 54.46 349.911 54.46C349.285 54.46 348.73 54.6187 348.245 54.936C347.759 55.2533 347.381 55.6873 347.111 56.238C346.84 56.7793 346.705 57.4 346.705 58.1C346.705 58.7907 346.84 59.4113 347.111 59.962C347.381 60.5127 347.759 60.9467 348.245 61.264C348.73 61.5813 349.285 61.74 349.911 61.74C350.545 61.74 351.105 61.5813 351.591 61.264C352.076 60.9467 352.454 60.5127 352.725 59.962C353.005 59.4113 353.145 58.7907 353.145 58.1ZM366.095 53.172C366.291 53.172 366.459 53.2373 366.599 53.368C366.739 53.4987 366.809 53.6573 366.809 53.844C366.809 53.9467 366.785 54.054 366.739 54.166L363.197 62.538C363.122 62.6967 363.019 62.8133 362.889 62.888C362.767 62.9627 362.641 63 362.511 63C362.38 62.9907 362.254 62.9487 362.133 62.874C362.021 62.7993 361.932 62.692 361.867 62.552L358.325 54.166C358.306 54.1193 358.292 54.0727 358.283 54.026C358.273 53.97 358.269 53.914 358.269 53.858C358.269 53.6433 358.348 53.4753 358.507 53.354C358.665 53.2327 358.819 53.172 358.969 53.172C359.267 53.172 359.487 53.326 359.627 53.634L362.833 61.236H362.427L365.451 53.62C365.581 53.3213 365.796 53.172 366.095 53.172ZM372.588 62.286C372.579 62.4913 372.499 62.664 372.35 62.804C372.21 62.9347 372.042 63 371.846 63C371.631 63 371.454 62.9347 371.314 62.804C371.183 62.664 371.118 62.4913 371.118 62.286V53.914C371.118 53.7087 371.188 53.5407 371.328 53.41C371.468 53.27 371.65 53.2 371.874 53.2C372.061 53.2 372.224 53.27 372.364 53.41C372.513 53.5407 372.588 53.7087 372.588 53.914V62.286ZM378.309 53.186C378.421 53.186 378.537 53.214 378.659 53.27C378.78 53.326 378.873 53.4053 378.939 53.508L382.495 58.926L381.893 58.898L385.519 53.508C385.668 53.2933 385.859 53.186 386.093 53.186C386.279 53.186 386.443 53.256 386.583 53.396C386.732 53.5267 386.807 53.6947 386.807 53.9V62.286C386.807 62.4913 386.741 62.664 386.611 62.804C386.48 62.9347 386.307 63 386.093 63C385.869 63 385.687 62.9347 385.547 62.804C385.416 62.664 385.351 62.4913 385.351 62.286V55.188L385.799 55.286L382.719 59.976C382.653 60.06 382.569 60.1347 382.467 60.2C382.364 60.256 382.257 60.2793 382.145 60.27C382.042 60.2793 381.935 60.256 381.823 60.2C381.72 60.1347 381.636 60.06 381.571 59.976L378.603 55.356L378.939 54.796V62.286C378.939 62.4913 378.873 62.664 378.743 62.804C378.621 62.9347 378.458 63 378.253 63C378.057 63 377.893 62.9347 377.763 62.804C377.641 62.664 377.581 62.4913 377.581 62.286V53.9C377.581 53.704 377.651 53.536 377.791 53.396C377.94 53.256 378.113 53.186 378.309 53.186ZM393.292 62.286C393.283 62.4913 393.204 62.664 393.054 62.804C392.914 62.9347 392.746 63 392.55 63C392.336 63 392.158 62.9347 392.018 62.804C391.888 62.664 391.822 62.4913 391.822 62.286V53.914C391.822 53.7087 391.892 53.5407 392.032 53.41C392.172 53.27 392.354 53.2 392.578 53.2C392.765 53.2 392.928 53.27 393.068 53.41C393.218 53.5407 393.292 53.7087 393.292 53.914V62.286ZM398.999 53.2H403.843C404.039 53.2 404.202 53.2653 404.333 53.396C404.473 53.5267 404.543 53.69 404.543 53.886C404.543 54.082 404.473 54.2407 404.333 54.362C404.202 54.4833 404.039 54.544 403.843 54.544H399.615L399.755 54.306V57.442L399.629 57.302H403.213C403.409 57.302 403.572 57.3673 403.703 57.498C403.843 57.6287 403.913 57.7967 403.913 58.002C403.913 58.198 403.843 58.3567 403.703 58.478C403.572 58.5993 403.409 58.66 403.213 58.66H399.657L399.755 58.534V61.768L399.657 61.656H403.843C404.039 61.656 404.202 61.726 404.333 61.866C404.473 61.9967 404.543 62.1507 404.543 62.328C404.543 62.524 404.473 62.6873 404.333 62.818C404.202 62.9393 404.039 63 403.843 63H398.999C398.803 63 398.635 62.9347 398.495 62.804C398.355 62.664 398.285 62.4913 398.285 62.286V53.914C398.285 53.7087 398.355 53.5407 398.495 53.41C398.635 53.27 398.803 53.2 398.999 53.2ZM416.363 53.2C416.549 53.2 416.699 53.2653 416.811 53.396C416.932 53.5173 416.993 53.6713 416.993 53.858V62.286C416.993 62.4913 416.923 62.664 416.783 62.804C416.652 62.9347 416.484 63 416.279 63C416.185 63 416.083 62.9813 415.971 62.944C415.868 62.9067 415.789 62.8553 415.733 62.79L409.979 55.328L410.301 55.146V62.356C410.301 62.5333 410.24 62.6873 410.119 62.818C409.997 62.9393 409.843 63 409.657 63C409.461 63 409.302 62.9393 409.181 62.818C409.069 62.6873 409.013 62.5333 409.013 62.356V53.914C409.013 53.6993 409.083 53.5267 409.223 53.396C409.363 53.2653 409.531 53.2 409.727 53.2C409.829 53.2 409.937 53.2233 410.049 53.27C410.17 53.3073 410.259 53.368 410.315 53.452L415.929 60.76L415.719 60.956V53.858C415.719 53.6713 415.779 53.5173 415.901 53.396C416.022 53.2653 416.176 53.2 416.363 53.2ZM425.202 63C424.978 63 424.796 62.9347 424.656 62.804C424.526 62.664 424.46 62.4913 424.46 62.286V53.9H425.958V62.286C425.958 62.4913 425.884 62.664 425.734 62.804C425.594 62.9347 425.417 63 425.202 63ZM422.024 54.544C421.828 54.544 421.66 54.4833 421.52 54.362C421.38 54.2313 421.31 54.0633 421.31 53.858C421.31 53.662 421.38 53.5033 421.52 53.382C421.66 53.2607 421.828 53.2 422.024 53.2H428.394C428.59 53.2 428.754 53.2653 428.884 53.396C429.024 53.5173 429.094 53.676 429.094 53.872C429.094 54.0773 429.024 54.2407 428.884 54.362C428.754 54.4833 428.59 54.544 428.394 54.544H422.024ZM442.067 58.1C442.067 58.8093 441.95 59.472 441.717 60.088C441.483 60.6947 441.152 61.2267 440.723 61.684C440.303 62.1413 439.803 62.5007 439.225 62.762C438.646 63.014 438.011 63.14 437.321 63.14C436.639 63.14 436.009 63.014 435.431 62.762C434.852 62.5007 434.348 62.1413 433.919 61.684C433.499 61.2267 433.172 60.6947 432.939 60.088C432.715 59.472 432.603 58.8093 432.603 58.1C432.603 57.3907 432.715 56.7327 432.939 56.126C433.172 55.51 433.499 54.9733 433.919 54.516C434.348 54.0587 434.852 53.704 435.431 53.452C436.009 53.1907 436.639 53.06 437.321 53.06C438.011 53.06 438.646 53.1907 439.225 53.452C439.803 53.704 440.303 54.0587 440.723 54.516C441.152 54.9733 441.483 55.51 441.717 56.126C441.95 56.7327 442.067 57.3907 442.067 58.1ZM440.555 58.1C440.555 57.4093 440.415 56.7887 440.135 56.238C439.864 55.6873 439.486 55.2533 439.001 54.936C438.515 54.6187 437.955 54.46 437.321 54.46C436.695 54.46 436.14 54.6187 435.655 54.936C435.169 55.2533 434.791 55.6873 434.521 56.238C434.25 56.7793 434.115 57.4 434.115 58.1C434.115 58.7907 434.25 59.4113 434.521 59.962C434.791 60.5127 435.169 60.9467 435.655 61.264C436.14 61.5813 436.695 61.74 437.321 61.74C437.955 61.74 438.515 61.5813 439.001 61.264C439.486 60.9467 439.864 60.5127 440.135 59.962C440.415 59.4113 440.555 58.7907 440.555 58.1Z" fill="white"/>
<path d="M297.012 87C296.724 87 296.49 86.916 296.31 86.748C296.142 86.568 296.058 86.346 296.058 86.082V75.3H297.984V86.082C297.984 86.346 297.888 86.568 297.696 86.748C297.516 86.916 297.288 87 297.012 87ZM292.926 76.128C292.674 76.128 292.458 76.05 292.278 75.894C292.098 75.726 292.008 75.51 292.008 75.246C292.008 74.994 292.098 74.79 292.278 74.634C292.458 74.478 292.674 74.4 292.926 74.4H301.116C301.368 74.4 301.578 74.484 301.746 74.652C301.926 74.808 302.016 75.012 302.016 75.264C302.016 75.528 301.926 75.738 301.746 75.894C301.578 76.05 301.368 76.128 301.116 76.128H292.926ZM311.436 76.74L307.386 86.46C307.314 86.652 307.206 86.802 307.062 86.91C306.918 87.018 306.756 87.072 306.576 87.072C306.312 87.072 306.114 87 305.982 86.856C305.85 86.7 305.778 86.508 305.766 86.28C305.766 86.196 305.784 86.1 305.82 85.992L310.392 74.94C310.476 74.736 310.596 74.58 310.752 74.472C310.92 74.364 311.1 74.316 311.292 74.328C311.472 74.328 311.64 74.382 311.796 74.49C311.952 74.598 312.066 74.748 312.138 74.94L316.656 85.83C316.704 85.95 316.728 86.07 316.728 86.19C316.728 86.454 316.638 86.67 316.458 86.838C316.29 86.994 316.098 87.072 315.882 87.072C315.702 87.072 315.534 87.018 315.378 86.91C315.234 86.79 315.126 86.64 315.054 86.46L310.968 76.794L311.436 76.74ZM308.106 83.904L308.916 82.176H314.01L314.316 83.904H308.106ZM323.344 87C323.056 87 322.804 86.916 322.588 86.748C322.372 86.568 322.264 86.346 322.264 86.082V75.318C322.264 75.054 322.354 74.838 322.534 74.67C322.714 74.49 322.93 74.4 323.182 74.4H328.258C328.906 74.4 329.5 74.562 330.04 74.886C330.58 75.198 331.012 75.636 331.336 76.2C331.672 76.752 331.84 77.388 331.84 78.108C331.84 78.588 331.744 79.05 331.552 79.494C331.36 79.926 331.102 80.31 330.778 80.646C330.454 80.982 330.088 81.234 329.68 81.402L329.482 81.06C329.854 81.192 330.178 81.384 330.454 81.636C330.73 81.876 330.946 82.164 331.102 82.5C331.27 82.824 331.36 83.196 331.372 83.616C331.408 83.988 331.438 84.3 331.462 84.552C331.498 84.792 331.546 84.99 331.606 85.146C331.666 85.302 331.774 85.422 331.93 85.506C332.146 85.626 332.278 85.806 332.326 86.046C332.386 86.286 332.338 86.502 332.182 86.694C332.074 86.838 331.936 86.934 331.768 86.982C331.612 87.018 331.45 87.024 331.282 87C331.114 86.964 330.97 86.916 330.85 86.856C330.658 86.736 330.46 86.568 330.256 86.352C330.064 86.124 329.908 85.812 329.788 85.416C329.668 85.02 329.608 84.498 329.608 83.85C329.608 83.55 329.56 83.292 329.464 83.076C329.368 82.86 329.236 82.686 329.068 82.554C328.9 82.41 328.702 82.308 328.474 82.248C328.246 82.176 327.994 82.14 327.718 82.14H323.902L324.154 81.78V86.082C324.154 86.346 324.082 86.568 323.938 86.748C323.794 86.916 323.596 87 323.344 87ZM323.92 80.574H328.222C328.498 80.562 328.762 80.454 329.014 80.25C329.278 80.034 329.488 79.746 329.644 79.386C329.812 79.026 329.896 78.618 329.896 78.162C329.896 77.586 329.722 77.106 329.374 76.722C329.038 76.326 328.636 76.128 328.168 76.128H323.956L324.154 75.66V80.952L323.92 80.574ZM340.186 86.082C340.174 86.346 340.072 86.568 339.88 86.748C339.7 86.916 339.484 87 339.232 87C338.956 87 338.728 86.916 338.548 86.748C338.38 86.568 338.296 86.346 338.296 86.082V75.318C338.296 75.054 338.386 74.838 338.566 74.67C338.746 74.49 338.98 74.4 339.268 74.4C339.508 74.4 339.718 74.49 339.898 74.67C340.09 74.838 340.186 75.054 340.186 75.318V86.082ZM349.827 87.18C349.119 87.18 348.471 87.018 347.883 86.694C347.295 86.37 346.821 85.92 346.461 85.344C346.353 85.164 346.299 84.996 346.299 84.84C346.299 84.588 346.395 84.378 346.587 84.21C346.779 84.042 346.971 83.958 347.163 83.958C347.331 83.958 347.481 84.006 347.613 84.102C347.757 84.186 347.889 84.294 348.009 84.426C348.249 84.738 348.519 84.978 348.819 85.146C349.119 85.302 349.455 85.38 349.827 85.38C350.259 85.38 350.649 85.284 350.997 85.092C351.345 84.888 351.621 84.618 351.825 84.282C352.029 83.934 352.131 83.556 352.131 83.148V75.318C352.131 75.054 352.227 74.838 352.419 74.67C352.611 74.49 352.833 74.4 353.085 74.4C353.361 74.4 353.583 74.49 353.751 74.67C353.919 74.838 354.003 75.054 354.003 75.318V83.148C354.003 83.88 353.817 84.552 353.445 85.164C353.085 85.776 352.587 86.268 351.951 86.64C351.327 87 350.619 87.18 349.827 87.18ZM364.946 76.74L360.896 86.46C360.824 86.652 360.716 86.802 360.572 86.91C360.428 87.018 360.266 87.072 360.086 87.072C359.822 87.072 359.624 87 359.492 86.856C359.36 86.7 359.288 86.508 359.276 86.28C359.276 86.196 359.294 86.1 359.33 85.992L363.902 74.94C363.986 74.736 364.106 74.58 364.262 74.472C364.43 74.364 364.61 74.316 364.802 74.328C364.982 74.328 365.15 74.382 365.306 74.49C365.462 74.598 365.576 74.748 365.648 74.94L370.166 85.83C370.214 85.95 370.238 86.07 370.238 86.19C370.238 86.454 370.148 86.67 369.968 86.838C369.8 86.994 369.608 87.072 369.392 87.072C369.212 87.072 369.044 87.018 368.888 86.91C368.744 86.79 368.636 86.64 368.564 86.46L364.478 76.794L364.946 76.74ZM361.616 83.904L362.426 82.176H367.52L367.826 83.904H361.616ZM389.875 74.4C390.751 74.4 391.525 74.568 392.197 74.904C392.869 75.228 393.427 75.684 393.871 76.272C394.327 76.848 394.669 77.52 394.897 78.288C395.125 79.044 395.239 79.848 395.239 80.7C395.239 81.864 395.035 82.926 394.627 83.886C394.219 84.834 393.619 85.59 392.827 86.154C392.035 86.718 391.051 87 389.875 87H385.483C385.231 87 385.015 86.916 384.835 86.748C384.655 86.568 384.565 86.346 384.565 86.082V75.318C384.565 75.054 384.655 74.838 384.835 74.67C385.015 74.49 385.231 74.4 385.483 74.4H389.875ZM389.695 85.272C390.547 85.272 391.237 85.062 391.765 84.642C392.293 84.222 392.677 83.67 392.917 82.986C393.169 82.29 393.295 81.528 393.295 80.7C393.295 80.088 393.223 79.512 393.079 78.972C392.947 78.42 392.731 77.934 392.431 77.514C392.143 77.082 391.771 76.746 391.315 76.506C390.871 76.254 390.331 76.128 389.695 76.128H386.293L386.455 75.966V85.452L386.347 85.272H389.695ZM403.12 86.082C403.108 86.346 403.006 86.568 402.814 86.748C402.634 86.916 402.418 87 402.166 87C401.89 87 401.662 86.916 401.482 86.748C401.314 86.568 401.23 86.346 401.23 86.082V75.318C401.23 75.054 401.32 74.838 401.5 74.67C401.68 74.49 401.914 74.4 402.202 74.4C402.442 74.4 402.652 74.49 402.832 74.67C403.024 74.838 403.12 75.054 403.12 75.318V86.082ZM414.308 76.74L410.258 86.46C410.186 86.652 410.078 86.802 409.934 86.91C409.79 87.018 409.628 87.072 409.448 87.072C409.184 87.072 408.986 87 408.854 86.856C408.722 86.7 408.65 86.508 408.638 86.28C408.638 86.196 408.656 86.1 408.692 85.992L413.264 74.94C413.348 74.736 413.468 74.58 413.624 74.472C413.792 74.364 413.972 74.316 414.164 74.328C414.344 74.328 414.512 74.382 414.668 74.49C414.824 74.598 414.938 74.748 415.01 74.94L419.528 85.83C419.576 85.95 419.6 86.07 419.6 86.19C419.6 86.454 419.51 86.67 419.33 86.838C419.162 86.994 418.97 87.072 418.754 87.072C418.574 87.072 418.406 87.018 418.25 86.91C418.106 86.79 417.998 86.64 417.926 86.46L413.84 76.794L414.308 76.74ZM410.978 83.904L411.788 82.176H416.882L417.188 83.904H410.978ZM432.103 85.236C432.355 85.236 432.565 85.32 432.733 85.488C432.913 85.656 433.003 85.866 433.003 86.118C433.003 86.37 432.913 86.58 432.733 86.748C432.565 86.916 432.355 87 432.103 87H426.055C425.791 87 425.569 86.916 425.389 86.748C425.221 86.568 425.137 86.346 425.137 86.082V75.318C425.137 75.054 425.227 74.838 425.407 74.67C425.587 74.49 425.821 74.4 426.109 74.4C426.349 74.4 426.559 74.49 426.739 74.67C426.931 74.838 427.027 75.054 427.027 75.318V85.542L426.649 85.236H432.103ZM450.157 80.7C450.157 81.612 450.007 82.464 449.707 83.256C449.407 84.036 448.981 84.72 448.429 85.308C447.889 85.896 447.247 86.358 446.503 86.694C445.759 87.018 444.943 87.18 444.055 87.18C443.179 87.18 442.369 87.018 441.625 86.694C440.881 86.358 440.233 85.896 439.681 85.308C439.141 84.72 438.721 84.036 438.421 83.256C438.133 82.464 437.989 81.612 437.989 80.7C437.989 79.788 438.133 78.942 438.421 78.162C438.721 77.37 439.141 76.68 439.681 76.092C440.233 75.504 440.881 75.048 441.625 74.724C442.369 74.388 443.179 74.22 444.055 74.22C444.943 74.22 445.759 74.388 446.503 74.724C447.247 75.048 447.889 75.504 448.429 76.092C448.981 76.68 449.407 77.37 449.707 78.162C450.007 78.942 450.157 79.788 450.157 80.7ZM448.213 80.7C448.213 79.812 448.033 79.014 447.673 78.306C447.325 77.598 446.839 77.04 446.215 76.632C445.591 76.224 444.871 76.02 444.055 76.02C443.251 76.02 442.537 76.224 441.913 76.632C441.289 77.04 440.803 77.598 440.455 78.306C440.107 79.002 439.933 79.8 439.933 80.7C439.933 81.588 440.107 82.386 440.455 83.094C440.803 83.802 441.289 84.36 441.913 84.768C442.537 85.176 443.251 85.38 444.055 85.38C444.871 85.38 445.591 85.176 446.215 84.768C446.839 84.36 447.325 83.802 447.673 83.094C448.033 82.386 448.213 81.588 448.213 80.7ZM461.996 87.18C461.084 87.18 460.232 87.018 459.44 86.694C458.648 86.358 457.952 85.896 457.352 85.308C456.764 84.708 456.302 84.018 455.966 83.238C455.63 82.458 455.462 81.612 455.462 80.7C455.462 79.788 455.63 78.942 455.966 78.162C456.302 77.382 456.764 76.698 457.352 76.11C457.952 75.51 458.648 75.048 459.44 74.724C460.232 74.388 461.084 74.22 461.996 74.22C462.584 74.22 463.154 74.286 463.706 74.418C464.258 74.55 464.756 74.742 465.2 74.994C465.356 75.078 465.47 75.192 465.542 75.336C465.614 75.468 465.65 75.6 465.65 75.732C465.65 75.984 465.566 76.206 465.398 76.398C465.242 76.578 465.044 76.668 464.804 76.668C464.72 76.668 464.63 76.656 464.534 76.632C464.45 76.608 464.372 76.578 464.3 76.542C463.964 76.374 463.604 76.248 463.22 76.164C462.836 76.068 462.428 76.02 461.996 76.02C461.132 76.02 460.352 76.23 459.656 76.65C458.96 77.058 458.408 77.616 458 78.324C457.604 79.032 457.406 79.824 457.406 80.7C457.406 81.564 457.604 82.356 458 83.076C458.408 83.784 458.96 84.348 459.656 84.768C460.352 85.176 461.132 85.38 461.996 85.38C462.416 85.38 462.86 85.332 463.328 85.236C463.796 85.128 464.192 84.99 464.516 84.822L464.372 85.308V81.888L464.66 82.14H462.302C462.038 82.14 461.816 82.056 461.636 81.888C461.468 81.72 461.384 81.504 461.384 81.24C461.384 80.976 461.468 80.76 461.636 80.592C461.816 80.424 462.038 80.34 462.302 80.34H465.416C465.668 80.34 465.878 80.43 466.046 80.61C466.226 80.778 466.316 80.994 466.316 81.258V85.254C466.316 85.446 466.268 85.608 466.172 85.74C466.076 85.872 465.968 85.98 465.848 86.064C465.308 86.4 464.708 86.67 464.048 86.874C463.4 87.078 462.716 87.18 461.996 87.18ZM476.96 76.74L472.91 86.46C472.838 86.652 472.73 86.802 472.586 86.91C472.442 87.018 472.28 87.072 472.1 87.072C471.836 87.072 471.638 87 471.506 86.856C471.374 86.7 471.302 86.508 471.29 86.28C471.29 86.196 471.308 86.1 471.344 85.992L475.916 74.94C476 74.736 476.12 74.58 476.276 74.472C476.444 74.364 476.624 74.316 476.816 74.328C476.996 74.328 477.164 74.382 477.32 74.49C477.476 74.598 477.59 74.748 477.662 74.94L482.18 85.83C482.228 85.95 482.252 86.07 482.252 86.19C482.252 86.454 482.162 86.67 481.982 86.838C481.814 86.994 481.622 87.072 481.406 87.072C481.226 87.072 481.058 87.018 480.902 86.91C480.758 86.79 480.65 86.64 480.578 86.46L476.492 76.794L476.96 76.74ZM473.63 83.904L474.44 82.176H479.534L479.84 83.904H473.63Z" fill="white"/>
</g>
<defs>
<filter id="filter0_d" x="326" y="181" width="139" height="139" filterUnits="userSpaceOnUse" color-interpolation-filters="sRGB">
<feFlood flood-opacity="0" result="BackgroundImageFix"/>
<feColorMatrix in="SourceAlpha" type="matrix" values="0 0 0 0 0 0 0 0 0 0 0 0 0 0 0 0 0 0 127 0"/>
<feOffset dy="4"/>
<feGaussianBlur stdDeviation="2"/>
<feColorMatrix type="matrix" values="0 0 0 0 0 0 0 0 0 0 0 0 0 0 0 0 0 0 0.25 0"/>
<feBlend mode="normal" in2="BackgroundImageFix" result="effect1_dropShadow"/>
<feBlend mode="normal" in="SourceGraphic" in2="effect1_dropShadow" result="shape"/>
</filter>
<linearGradient id="paint0_linear" x1="387" y1="0" x2="387" y2="235" gradientUnits="userSpaceOnUse">
<stop stop-color="#E80020"/>
<stop offset="1" stop-color="#FF001D"/>
</linearGradient>
<linearGradient id="paint1_linear" x1="358.624" y1="245.319" x2="435.667" y2="245.319" gradientUnits="userSpaceOnUse">
<stop stop-color="#F10C1E"/>
<stop offset="0.373004" stop-color="#F00D1E"/>
<stop offset="0.861539" stop-color="#00A759" stop-opacity="0.980392"/>
<stop offset="1" stop-color="#00943B" stop-opacity="0.954167"/>
</linearGradient>
<linearGradient id="paint2_linear" x1="358.624" y1="245.319" x2="435.667" y2="245.319" gradientUnits="userSpaceOnUse">
<stop stop-color="#F10C1E"/>
<stop offset="0.373004" stop-color="#F00D1E"/>
<stop offset="0.861539" stop-color="#00A759" stop-opacity="0.980392"/>
<stop offset="1" stop-color="#00943B" stop-opacity="0.954167"/>
</linearGradient>
<linearGradient id="paint3_linear" x1="358.624" y1="245.319" x2="435.667" y2="245.319" gradientUnits="userSpaceOnUse">
<stop stop-color="#F10C1E"/>
<stop offset="0.373004" stop-color="#F00D1E"/>
<stop offset="0.861539" stop-color="#00A759" stop-opacity="0.980392"/>
<stop offset="1" stop-color="#00943B" stop-opacity="0.954167"/>
</linearGradient>
<linearGradient id="paint4_linear" x1="358.624" y1="245.319" x2="435.667" y2="245.319" gradientUnits="userSpaceOnUse">
<stop stop-color="#F10C1E"/>
<stop offset="0.373004" stop-color="#F00D1E"/>
<stop offset="0.861539" stop-color="#00A759" stop-opacity="0.980392"/>
<stop offset="1" stop-color="#00943B" stop-opacity="0.954167"/>
</linearGradient>
<linearGradient id="paint5_linear" x1="358.624" y1="245.319" x2="435.667" y2="245.319" gradientUnits="userSpaceOnUse">
<stop stop-color="#F10C1E"/>
<stop offset="0.373004" stop-color="#F00D1E"/>
<stop offset="0.861539" stop-color="#00A759" stop-opacity="0.980392"/>
<stop offset="1" stop-color="#00943B" stop-opacity="0.954167"/>
</linearGradient>
<linearGradient id="paint6_linear" x1="358.624" y1="245.319" x2="435.667" y2="245.319" gradientUnits="userSpaceOnUse">
<stop stop-color="#F10C1E"/>
<stop offset="0.373004" stop-color="#F00D1E"/>
<stop offset="0.861539" stop-color="#00A759" stop-opacity="0.980392"/>
<stop offset="1" stop-color="#00943B" stop-opacity="0.954167"/>
</linearGradient>
<linearGradient id="paint7_linear" x1="343.777" y1="255.5" x2="450.223" y2="255.5" gradientUnits="userSpaceOnUse">
<stop stop-color="#ED0225"/>
<stop offset="1" stop-color="#FF001D"/>
</linearGradient>
<linearGradient id="paint8_linear" x1="352.453" y1="255.56" x2="450.223" y2="255.56" gradientUnits="userSpaceOnUse">
<stop stop-color="#F10C1E"/>
<stop offset="0.460636" stop-color="#00994A"/>
<stop offset="1" stop-color="#008936"/>
</linearGradient>
<linearGradient id="paint9_linear" x1="343.777" y1="255.5" x2="450.223" y2="255.5" gradientUnits="userSpaceOnUse">
<stop stop-color="#ED0225"/>
<stop offset="1" stop-color="#FF001D"/>
</linearGradient>
<clipPath id="clip0">
<rect width="774" height="1003" fill="white"/>
</clipPath>
</defs>
</svg>
